<?xml version="1.0" standalone="no"?>
<!DOCTYPE svg PUBLIC "-//W3C//DTD SVG 20010904//EN"
 "http://www.w3.org/TR/2001/REC-SVG-20010904/DTD/svg10.dtd">
<svg version="1.0" xmlns="http://www.w3.org/2000/svg"
 width="950.000000pt" height="950.000000pt" viewBox="0 0 950.000000 950.000000"
 preserveAspectRatio="xMidYMid meet">
<metadata>
Created by potrace 1.11, written by Peter Selinger 2001-2013
</metadata>
<g transform="translate(0.000000,950.000000) scale(0.100000,-0.100000)"
fill="#000000" stroke="none">
<path d="M0 4750 l0 -4750 1483 1 c815 0 1546 4 1625 8 169 9 172 11 170 109
0 35 2 66 6 69 3 3 1 14 -5 24 -7 13 -6 26 2 40 9 17 8 23 -2 30 -9 5 -9 9 -3
9 14 0 24 44 13 61 -4 7 -3 20 2 31 5 10 13 27 19 38 5 11 10 25 10 32 0 7 9
19 20 26 11 7 20 22 20 35 0 14 3 18 8 10 5 -9 16 -7 40 9 17 11 32 23 32 27
0 14 37 51 51 52 8 0 26 8 41 17 15 9 58 36 96 59 63 38 97 73 72 73 -17 0
-11 20 8 27 9 4 23 13 30 20 8 7 18 11 23 8 5 -4 9 3 9 14 0 15 9 22 38 28 20
4 42 6 48 5 7 -1 33 8 59 22 78 39 111 15 130 -99 28 -171 27 -186 -8 -202
-22 -10 -47 3 -47 24 0 15 -41 34 -60 28 -10 -3 -20 -14 -23 -25 -3 -13 -11
-18 -26 -15 -16 3 -24 -3 -31 -20 -13 -34 -54 -59 -85 -51 -17 4 -25 2 -25 -7
0 -8 -19 -20 -42 -27 -60 -19 -60 -18 -42 -46 16 -24 16 -24 -15 -30 -17 -4
-31 -10 -31 -14 0 -4 -11 -5 -25 -2 -29 5 -33 -5 -8 -23 9 -7 13 -17 8 -25 -6
-10 -9 -9 -16 1 -7 11 -9 10 -9 -3 0 -10 -6 -18 -12 -18 -10 0 -10 -2 -2 -8
17 -10 20 -44 6 -69 -13 -23 -1 -33 39 -33 24 0 24 -12 -1 -35 -11 -10 -20
-26 -20 -36 0 -15 6 -17 37 -12 25 4 34 3 29 -5 -4 -6 -14 -8 -24 -5 -15 6
-15 5 -3 -10 12 -15 11 -17 -8 -17 -22 0 -28 -14 -11 -25 15 -9 12 -25 -5 -25
-23 0 -18 -20 8 -29 24 -9 50 -4 42 9 -3 4 3 14 12 21 10 9 14 9 10 2 -11 -18
35 -44 79 -44 22 0 1327 -3 2902 -6 l2862 -5 0 4751 0 4751 -1642 0 c-904 0
-1638 -4 -1632 -8 17 -12 23 -39 11 -51 -8 -8 -7 -11 4 -11 15 0 59 -40 59
-53 0 -4 -8 -7 -17 -8 -11 0 -13 -3 -5 -6 22 -9 35 -43 21 -59 -8 -10 -8 -14
0 -14 16 0 39 -63 34 -94 -4 -18 -1 -26 8 -26 11 0 11 -2 -1 -10 -12 -8 -11
-10 8 -10 25 0 30 -18 7 -26 -8 -4 -15 -14 -15 -25 0 -15 7 -18 35 -15 19 1
35 -1 35 -6 0 -4 -4 -8 -10 -8 -5 0 -7 -6 -4 -14 3 -9 -3 -17 -18 -22 -22 -7
-22 -7 -3 -15 11 -4 30 -5 42 -2 15 3 25 -2 32 -15 14 -27 14 -32 -4 -32 -8 0
-12 -6 -9 -14 3 -8 -3 -16 -15 -19 -12 -3 -21 -11 -20 -19 0 -8 2 -9 5 -2 5
12 54 6 54 -7 0 -4 -11 -20 -26 -34 l-25 -25 25 -23 c23 -20 32 -46 41 -115 1
-12 -2 -25 -6 -28 -5 -3 -9 -12 -9 -20 0 -8 4 -13 9 -10 11 7 21 -30 11 -41
-10 -10 7 -56 18 -49 4 2 8 -22 9 -54 1 -43 -3 -60 -14 -64 -8 -4 -11 -11 -7
-18 10 -16 13 -118 4 -118 -8 0 -22 -51 -25 -89 -1 -13 -10 -28 -20 -33 -14
-8 -15 -12 -4 -19 11 -7 11 -9 -3 -9 -9 0 -19 -8 -22 -18 -8 -24 0 -136 14
-197 6 -27 9 -68 5 -91 -5 -38 -142 -326 -216 -454 -70 -122 -423 -838 -566
-1150 -17 -36 -44 -94 -61 -130 -33 -71 -62 -139 -62 -148 0 -10 222 19 530
69 36 5 126 19 200 29 74 11 193 29 263 40 71 12 134 19 141 17 8 -3 14 -22
15 -44 0 -21 7 -74 15 -118 39 -222 47 -263 57 -302 9 -34 9 -45 -2 -56 -12
-13 -36 -50 -130 -200 -14 -23 -47 -78 -74 -122 -26 -44 -58 -96 -70 -115 -68
-106 -433 -751 -447 -790 -3 -8 -48 -78 -100 -155 -132 -196 -385 -574 -407
-610 -11 -16 -50 -80 -88 -141 -37 -61 -74 -119 -80 -130 -7 -10 -25 -40 -40
-66 -16 -27 -31 -48 -35 -48 -5 0 -8 -6 -8 -12 0 -7 -20 -44 -45 -82 -25 -38
-62 -97 -83 -133 -20 -35 -50 -86 -67 -114 -16 -27 -66 -109 -109 -181 -105
-174 -283 -460 -296 -475 -5 -7 -10 -15 -10 -19 0 -4 -24 -46 -53 -93 -29 -47
-60 -99 -70 -116 -9 -16 -58 -101 -109 -188 -51 -87 -101 -172 -112 -190 -10
-18 -52 -90 -94 -162 -41 -71 -85 -148 -97 -170 -70 -126 -85 -148 -118 -171
-20 -13 -39 -24 -42 -24 -3 0 -18 -8 -33 -18 -15 -11 -81 -54 -147 -98 -66
-43 -121 -82 -123 -86 -2 -4 -27 -21 -55 -38 -84 -50 -92 -55 -98 -63 -9 -12
-83 -21 -113 -13 -15 4 -33 20 -42 38 -26 50 -12 131 54 333 96 290 171 537
257 845 32 113 73 259 92 325 19 66 43 149 53 185 9 36 41 148 70 250 29 102
60 214 70 250 10 36 44 157 75 270 32 113 63 228 70 255 7 28 38 145 70 260
31 116 61 230 66 255 5 25 18 76 28 115 33 124 61 259 64 305 l2 45 -69 3
c-70 3 -204 -5 -524 -33 l-183 -16 -87 36 c-48 20 -96 40 -107 45 -11 5 -38
16 -60 24 -53 18 -241 93 -283 111 -18 8 -42 15 -52 15 -27 0 -26 23 6 112 15
40 30 87 34 103 4 17 26 93 48 170 52 177 132 474 132 487 0 9 98 259 125 321
67 150 193 469 222 562 8 28 19 55 23 60 4 6 13 30 20 54 6 24 16 55 22 70 59
145 238 691 273 834 34 143 51 395 31 487 -11 51 -24 96 -36 125 -7 17 -12 34
-11 38 0 4 -4 18 -10 30 -13 24 -20 96 -11 112 6 10 12 36 15 73 1 12 5 22 9
22 3 0 9 17 13 38 9 55 34 123 35 95 0 -12 4 -24 10 -28 5 -3 8 7 5 25 -3 29
9 42 18 18 3 -9 12 -4 26 14 14 18 27 24 41 21 11 -3 20 0 20 6 0 6 7 11 16
11 12 0 15 6 11 20 -4 18 -2 20 16 14 20 -6 20 -5 -3 14 l-25 21 32 1 c17 0
35 5 38 10 3 6 2 10 -3 10 -5 0 -12 9 -15 20 -4 15 0 20 14 20 10 0 18 3 18 8
-3 18 3 21 26 12 22 -8 25 -7 25 11 0 11 4 18 9 15 21 -13 20 27 0 45 -12 11
-20 20 -18 22 32 19 51 27 63 27 8 0 17 -6 20 -12 4 -7 4 -3 2 10 -3 13 1 22
9 22 7 0 15 7 19 15 3 8 1 15 -4 15 -5 0 -12 11 -16 25 -3 14 -10 25 -15 25
-6 0 -4 10 3 23 7 12 11 25 10 30 -1 4 3 7 9 7 6 0 9 7 5 15 -4 11 1 15 19 15
14 0 25 -4 25 -9 0 -4 12 -20 26 -34 14 -14 23 -30 20 -35 -9 -14 23 -52 45
-52 10 0 19 -7 19 -15 0 -8 -4 -15 -9 -15 -17 0 2 -45 31 -73 15 -16 31 -41
35 -55 6 -24 58 -119 72 -132 4 -3 13 -18 22 -35 9 -17 22 -29 31 -27 12 2 15
-3 11 -18 -4 -14 0 -20 13 -21 11 -1 26 -3 34 -4 8 -1 20 -3 27 -4 6 0 19 -8
28 -17 19 -19 103 -21 168 -3 23 6 56 13 72 14 17 2 32 4 35 5 3 1 13 2 23 1
9 -1 17 1 17 6 0 4 10 9 23 10 71 5 124 16 227 48 63 20 131 39 150 42 18 3
45 12 57 20 13 9 26 13 30 9 4 -3 16 0 27 8 12 7 42 17 66 21 25 4 61 14 80
22 101 43 128 58 124 65 -3 4 10 8 30 8 19 0 37 6 39 13 4 9 6 9 6 0 2 -21 21
-14 21 7 0 11 7 20 15 20 8 0 16 9 16 20 2 23 3 29 13 52 10 23 -3 46 -15 27
-7 -11 -9 -10 -9 3 0 10 -10 20 -23 23 -25 7 -32 35 -13 47 6 4 -5 8 -24 8
-19 0 -41 4 -49 9 -16 10 -71 -3 -82 -20 -5 -8 -18 -6 -48 7 -22 10 -41 21
-41 26 0 4 -12 8 -26 8 -17 0 -23 4 -18 12 5 8 2 9 -10 5 -10 -4 -22 -7 -27
-7 -6 0 -8 -4 -5 -9 4 -5 -3 -7 -14 -4 -11 3 -23 9 -26 14 -2 4 -16 4 -29 -1
-16 -6 -25 -6 -25 0 0 22 -2 25 -23 37 -27 15 -40 16 -32 3 3 -6 -1 -7 -9 -4
-9 3 -16 10 -16 15 0 4 -12 7 -27 6 -15 -1 -28 4 -31 12 -3 10 0 12 13 7 15
-5 16 -4 6 8 -11 13 -6 18 26 32 52 24 60 27 43 15 -8 -5 -11 -13 -7 -17 4 -4
17 2 28 15 13 14 27 20 40 16 10 -4 19 -2 19 4 0 8 29 18 80 27 31 5 45 10 58
17 6 5 12 4 12 -1 0 -5 12 -7 28 -5 15 2 35 4 45 4 9 0 15 4 12 10 -4 5 -1 9
4 9 6 0 11 -6 11 -12 0 -9 3 -9 8 -3 4 6 20 12 36 13 16 1 37 9 46 17 9 8 22
15 28 15 7 0 12 11 12 25 0 17 -6 25 -17 25 -15 0 -16 2 -3 10 8 5 11 10 5 10
-5 0 -4 5 2 11 9 9 16 7 29 -5 26 -26 59 -17 59 17 -1 15 3 27 7 27 4 0 8 9 8
20 0 16 -5 19 -30 14 -23 -5 -30 -3 -30 10 0 9 5 16 11 16 5 0 8 4 5 9 -4 5
-2 21 4 35 l10 26 -2970 0 -2970 0 0 -4750z m5900 4685 c0 -8 -2 -15 -4 -15
-2 0 -6 7 -10 15 -3 8 -1 15 4 15 6 0 10 -7 10 -15z m-621 -331 c3 -16 1 -17
-13 -5 -19 16 -21 34 -3 29 6 -3 14 -13 16 -24z m41 -4 c0 -5 -4 -10 -10 -10
-5 0 -10 5 -10 10 0 6 5 10 10 10 6 0 10 -4 10 -10z m-1026 -68 c-22 -5 -31 7
-14 18 9 6 17 5 22 -3 4 -7 1 -13 -8 -15z m1096 -12 c0 -5 -5 -10 -11 -10 -5
0 -7 5 -4 10 3 6 8 10 11 10 2 0 4 -4 4 -10z m65 -30 c4 -6 -5 -10 -20 -10
-15 0 -24 4 -20 10 3 6 12 10 20 10 8 0 17 -4 20 -10z m-892 -257 c-7 -2 -19
-2 -25 0 -7 3 -2 5 12 5 14 0 19 -2 13 -5z m-817 -8268 c-8 -8 -17 -15 -20
-15 -3 0 -6 7 -6 15 0 9 9 15 21 15 18 0 19 -2 5 -15z"/>
<path d="M5950 9490 c0 -5 7 -7 15 -4 8 4 15 8 15 10 0 2 -7 4 -15 4 -8 0 -15
-4 -15 -10z"/>
<path d="M5715 8990 c3 -5 11 -10 16 -10 6 0 7 5 4 10 -3 6 -11 10 -16 10 -6
0 -7 -4 -4 -10z"/>
<path d="M5916 8931 c-3 -5 1 -11 9 -15 8 -3 15 -1 15 4 0 13 -18 22 -24 11z"/>
<path d="M4238 8743 c7 -3 16 -2 19 1 4 3 -2 6 -13 5 -11 0 -14 -3 -6 -6z"/>
<path d="M4155 8650 c3 -5 1 -10 -5 -10 -6 0 -8 -4 -5 -10 10 -16 21 -11 22
10 1 11 -3 20 -8 20 -6 0 -7 -4 -4 -10z"/>
<path d="M5697 8494 c-1 -1 -15 -4 -32 -7 -454 -75 -704 -128 -1040 -222 -71
-20 -140 -39 -152 -42 -12 -3 -20 -10 -17 -17 3 -9 -118 -73 -160 -84 -31 -8
-98 -125 -225 -392 -22 -47 -65 -127 -95 -179 -62 -105 -107 -207 -173 -391
-54 -149 -180 -521 -194 -570 -6 -19 -18 -60 -28 -90 -46 -134 -124 -403 -179
-615 -74 -284 -96 -347 -202 -585 -28 -63 -83 -200 -134 -330 -55 -142 -75
-205 -67 -213 4 -4 48 -3 97 3 49 6 168 20 264 30 200 22 513 63 645 85 50 8
158 26 240 40 193 32 219 32 252 -1 22 -22 24 -30 18 -70 -3 -25 -22 -86 -41
-137 -20 -51 -44 -117 -54 -147 -10 -30 -33 -95 -50 -145 -17 -49 -41 -128
-54 -175 -13 -47 -33 -121 -45 -164 -34 -122 -81 -305 -97 -371 -7 -33 -20
-85 -29 -115 -14 -53 -43 -175 -120 -495 -19 -82 -44 -186 -55 -230 -37 -150
-81 -341 -181 -770 -47 -205 -87 -414 -94 -491 -5 -60 -3 -72 10 -77 21 -9 74
49 176 188 70 95 285 411 299 440 3 6 36 57 74 115 60 91 186 288 315 493 20
32 61 97 92 145 43 68 203 324 270 432 49 80 199 332 199 336 0 2 17 32 38 66
58 95 111 195 372 703 71 139 146 265 187 315 7 8 37 49 67 90 30 41 59 80 63
85 44 53 413 590 413 601 0 3 13 24 29 47 16 23 72 114 126 202 54 88 105 171
114 185 8 14 26 45 39 69 l24 44 -54 -6 c-29 -3 -129 -17 -223 -31 -93 -13
-222 -32 -285 -40 -63 -9 -153 -23 -200 -31 -47 -9 -128 -22 -180 -30 -134
-19 -444 -71 -575 -95 -198 -37 -193 -36 -201 -6 -5 20 6 47 48 123 71 128
189 380 272 583 15 36 36 85 46 110 10 25 33 81 50 125 37 93 116 286 136 330
7 17 39 89 70 160 31 72 72 164 92 205 19 41 42 93 52 115 25 57 69 153 91
201 10 22 19 45 19 50 0 6 5 15 11 21 6 6 29 55 50 109 22 55 46 113 53 129
31 70 67 185 80 251 17 94 5 128 -49 138 -32 6 -201 6 -208 0z"/>
<path d="M4660 8479 c0 -5 5 -7 10 -4 6 3 10 8 10 11 0 2 -4 4 -10 4 -5 0 -10
-5 -10 -11z"/>
<path d="M6120 8082 c-14 -5 -103 -141 -125 -192 -11 -25 -27 -60 -37 -78 -10
-18 -18 -41 -18 -52 0 -11 -5 -20 -11 -20 -6 0 -9 -9 -6 -20 3 -11 1 -20 -4
-20 -4 0 -13 -17 -19 -38 -5 -22 -21 -60 -35 -86 -14 -26 -25 -53 -25 -60 0
-7 -11 -36 -25 -64 -14 -29 -25 -63 -25 -77 0 -14 -3 -25 -7 -25 -8 0 -33 -48
-33 -62 0 -5 -9 -19 -20 -30 -11 -12 -24 -37 -30 -56 -5 -19 -16 -42 -24 -51
-13 -15 -24 -40 -63 -147 -8 -22 -25 -52 -38 -66 -30 -32 -56 -94 -49 -113 4
-8 1 -15 -5 -15 -6 0 -11 -9 -11 -20 0 -11 -16 -40 -35 -66 -36 -46 -47 -105
-24 -120 8 -4 7 -9 -2 -16 -11 -7 -11 -11 -1 -15 15 -6 16 -33 1 -33 -7 0 -9
-10 -7 -25 4 -17 1 -25 -8 -25 -8 0 -14 -7 -14 -15 0 -8 6 -12 14 -9 16 6 40
-31 31 -46 -3 -6 -3 -10 2 -10 10 0 43 -57 43 -76 0 -8 4 -14 9 -14 5 0 14
-13 20 -30 11 -34 31 -40 31 -9 0 11 3 18 8 16 4 -3 14 10 23 29 9 18 11 31 5
27 -6 -3 1 7 15 23 15 16 37 52 49 79 53 118 63 143 85 190 37 81 63 142 101
239 20 50 53 132 74 181 20 50 45 115 55 145 10 30 24 71 30 90 36 98 57 167
59 185 0 11 4 25 7 30 4 6 9 27 13 48 4 20 11 37 15 37 5 0 11 12 14 28 3 15
15 38 26 51 12 13 21 32 21 43 0 10 4 18 8 18 4 0 16 25 27 56 18 52 20 87 14
221 -1 12 -6 21 -13 20 -6 -1 -10 6 -8 17 2 11 -1 15 -7 11 -6 -3 -11 0 -11 7
0 12 -36 18 -60 10z"/>
<path d="M5485 6350 c-3 -5 -1 -10 4 -10 6 0 11 5 11 10 0 6 -2 10 -4 10 -3 0
-8 -4 -11 -10z"/>
<path d="M5455 6340 c3 -5 8 -10 11 -10 2 0 4 5 4 10 0 6 -5 10 -11 10 -5 0
-7 -4 -4 -10z"/>
<path d="M6596 5988 c-18 -29 -53 -86 -77 -126 -24 -40 -56 -91 -71 -115 -15
-23 -32 -51 -38 -62 -5 -11 -25 -45 -44 -75 -94 -150 -270 -468 -409 -740
-134 -264 -161 -311 -231 -414 -87 -126 -84 -123 -151 -211 -54 -72 -101 -137
-188 -260 -43 -61 -238 -354 -273 -410 -17 -28 -53 -85 -80 -128 -27 -43 -69
-111 -94 -151 -25 -39 -50 -81 -57 -91 -7 -11 -35 -58 -63 -105 -28 -47 -69
-114 -91 -149 -21 -34 -39 -65 -39 -67 0 -3 -8 -17 -19 -32 -25 -37 -251 -417
-346 -582 -43 -74 -93 -162 -113 -195 -189 -329 -399 -718 -416 -776 -4 -13
-10 -45 -13 -72 l-5 -47 36 0 c39 0 100 27 154 67 34 25 157 185 217 282 6 9
58 88 115 176 103 156 198 301 292 447 26 40 90 145 143 233 113 187 361 585
372 600 5 6 58 91 118 190 60 99 146 241 192 315 88 145 159 265 203 345 15
28 62 112 104 188 42 75 76 139 76 141 0 13 131 234 187 314 221 318 313 457
447 672 53 85 101 162 106 170 16 24 49 77 117 190 72 119 72 123 43 267 -18
84 -50 253 -50 261 0 1 -5 2 -10 2 -6 0 -25 -24 -44 -52z"/>
</g>
</svg>
